<mxfile host="app.diagrams.net" modified="2021-11-04T07:53:25.083Z" agent="5.0 (Windows NT 10.0; Win64; x64) AppleWebKit/537.36 (KHTML, like Gecko) Chrome/95.0.4638.54 Safari/537.36 Edg/95.0.1020.30" etag="bt8S8oUpazlZ82KxOdm1" version="14.9.3" type="github">
  <diagram id="d6yw3ASxjf8QQA7evJ3L" name="Page-1">
    <mxGraphModel dx="1422" dy="794" grid="1" gridSize="10" guides="1" tooltips="1" connect="1" arrows="1" fold="1" page="1" pageScale="1" pageWidth="827" pageHeight="1169" math="0" shadow="0">
      <root>
        <mxCell id="0" />
        <mxCell id="1" parent="0" />
        <mxCell id="TQDrDDMJm2PB6StB_yg6-6" style="edgeStyle=orthogonalEdgeStyle;rounded=0;orthogonalLoop=1;jettySize=auto;html=1;exitX=1;exitY=0.5;exitDx=0;exitDy=0;entryX=0;entryY=0.5;entryDx=0;entryDy=0;" edge="1" parent="1" source="TQDrDDMJm2PB6StB_yg6-1" target="TQDrDDMJm2PB6StB_yg6-4">
          <mxGeometry relative="1" as="geometry" />
        </mxCell>
        <mxCell id="TQDrDDMJm2PB6StB_yg6-1" value="" style="rounded=1;whiteSpace=wrap;html=1;" vertex="1" parent="1">
          <mxGeometry x="280" y="220" width="120" height="170" as="geometry" />
        </mxCell>
        <mxCell id="TQDrDDMJm2PB6StB_yg6-3" value="web+server" style="text;html=1;strokeColor=none;fillColor=none;align=center;verticalAlign=middle;whiteSpace=wrap;rounded=0;" vertex="1" parent="1">
          <mxGeometry x="305" y="270" width="70" height="45" as="geometry" />
        </mxCell>
        <mxCell id="TQDrDDMJm2PB6StB_yg6-4" value="" style="rounded=1;whiteSpace=wrap;html=1;" vertex="1" parent="1">
          <mxGeometry x="550" y="250" width="120" height="60" as="geometry" />
        </mxCell>
        <mxCell id="TQDrDDMJm2PB6StB_yg6-5" value="listener" style="text;html=1;strokeColor=none;fillColor=none;align=center;verticalAlign=middle;whiteSpace=wrap;rounded=0;" vertex="1" parent="1">
          <mxGeometry x="590" y="282.5" width="40" height="20" as="geometry" />
        </mxCell>
      </root>
    </mxGraphModel>
  </diagram>
</mxfile>
